<svg xmlns="http://www.w3.org/2000/svg" viewBox="0 0 609.97 186.88"><defs><style>.cls-1{fill:none;}.cls-1,.cls-2{stroke:#000;stroke-width:40px;}</style></defs><g id="Layer_2" data-name="Layer 2"><g id="Layer_1-2" data-name="Layer 1"><path d="M178.69,156.88h107.6v30H178.69Zm2.4-118.79h102.8V67.68H181.09Zm13,57.19h76.6v30h-76.6Z"/><path d="M320.83,108.88c0-48.79,27.6-76.39,68.2-76.39s68.2,27.79,68.2,76.39c0,48.8-27.6,78-68.2,78S320.83,157.68,320.83,108.88Zm100,0c0-28.8-12.2-45.79-31.8-45.79s-31.6,17-31.6,45.79c0,29,12,47.2,31.6,47.2S420.83,137.88,420.83,108.88Z"/><path d="M491.77,38.09h36.4l37,71.19,14.6,33h1c-2-15.8-4.8-37.2-4.8-55V38.09h34V186.88h-36.4l-36.8-71.8-14.6-32.6h-1c1.6,16.6,4.6,37,4.6,55v49.4h-34Z"/><circle cx="123.37" cy="20.78" r="20.78"/><circle cx="21.92" cy="20.78" r="20.78"/><path class="cls-1" d="M127.76,75.94c0,34.6-24.12,62.64-53.88,62.64S20,110.54,20,75.94"/><line class="cls-2" x1="72.64" y1="138.58" x2="72.64" y2="186.88"/></g></g></svg>